<svg version="1.1" id="Layer_1" xmlns="http://www.w3.org/2000/svg" xmlns:xlink="http://www.w3.org/1999/xlink" x="0px" y="0px"
	 width="100%" viewBox="0 0 1052 1054" enable-background="new 0 0 1052 1054" xml:space="preserve">
<path fill="#FFFFFF" opacity="1.000000" stroke="none" 
	d="
M461.000000,1055.000000 
	C307.351471,1055.000000 154.202927,1055.000000 1.027197,1055.000000 
	C1.027197,703.726379 1.027197,352.452789 1.027197,1.089580 
	C351.565399,1.089580 702.130859,1.089580 1052.848145,1.089580 
	C1052.848145,352.333282 1052.848145,703.666626 1052.848145,1055.000000 
	C855.785645,1055.000000 658.642822,1055.000000 461.000000,1055.000000 
M395.885651,526.505005 
	C398.455658,468.528290 426.596405,426.321960 479.433960,404.555328 
	C544.842529,377.610077 599.853760,397.509369 644.523560,450.937988 
	C680.376160,430.101105 716.531494,409.088257 752.889343,387.957733 
	C750.938599,385.113495 749.471008,382.899017 747.929688,380.737122 
	C682.606873,289.118958 567.712952,251.608109 461.681366,279.810059 
	C343.800110,311.163818 261.398987,421.384216 270.874695,545.449890 
	C273.445221,579.106262 281.972565,611.031311 297.442688,640.894348 
	C351.217133,744.698975 464.152649,799.962524 579.342346,779.067627 
	C641.983704,767.704712 693.970398,737.639587 735.123413,689.082397 
	C742.266663,680.653992 748.450195,671.412170 755.390564,662.126587 
	C718.660339,640.233398 682.874512,618.903137 647.107361,597.583984 
	C610.781860,654.131836 543.974487,672.199036 488.944672,653.841064 
	C434.625214,635.719971 396.609192,584.203430 395.885651,526.505005 
z"/>
<path fill="#0156D2" opacity="1.000000" stroke="none" 
	d="
M395.885498,526.999634 
	C396.609192,584.203430 434.625214,635.719971 488.944672,653.841064 
	C543.974487,672.199036 610.781860,654.131836 647.107361,597.583984 
	C682.874512,618.903137 718.660339,640.233398 755.390564,662.126587 
	C748.450195,671.412170 742.266663,680.653992 735.123413,689.082397 
	C693.970398,737.639587 641.983704,767.704712 579.342346,779.067627 
	C464.152649,799.962524 351.217133,744.698975 297.442688,640.894348 
	C281.972565,611.031311 273.445221,579.106262 270.874695,545.449890 
	C261.398987,421.384216 343.800110,311.163818 461.681366,279.810059 
	C567.712952,251.608109 682.606873,289.118958 747.929688,380.737122 
	C749.471008,382.899017 750.938599,385.113495 752.889343,387.957733 
	C716.531494,409.088257 680.376160,430.101105 644.523560,450.937988 
	C599.853760,397.509369 544.842529,377.610077 479.433960,404.555328 
	C426.596405,426.321960 398.455658,468.528290 395.885498,526.999634 
z"/>
</svg>