<svg version="1.1" id="Layer_1" xmlns="http://www.w3.org/2000/svg" xmlns:xlink="http://www.w3.org/1999/xlink" x="0px" y="0px"
	 width="100%" viewBox="0 0 252 250" enable-background="new 0 0 252 250" xml:space="preserve">
<path fill="#FFFFFF" opacity="1.000000" stroke="none" 
	d="
M141.000000,251.000000 
	C94.000000,251.000000 47.500004,251.000000 1.000006,251.000000 
	C1.000004,167.666672 1.000004,84.333351 1.000002,1.000017 
	C84.999985,1.000012 168.999969,1.000012 252.999969,1.000006 
	C252.999969,84.333321 252.999969,167.666641 252.999985,250.999969 
	C215.833328,251.000000 178.666672,251.000000 141.000000,251.000000 
M154.992081,51.453243 
	C143.506378,47.338776 131.647018,46.083622 119.571434,47.274117 
	C74.069878,51.759968 40.008888,93.675385 45.544468,138.238892 
	C51.441353,185.711060 93.403168,218.175735 139.902588,211.241104 
	C176.749130,205.746033 206.259064,175.694778 209.910126,139.949280 
	C213.977417,100.128723 192.246658,64.768623 154.992081,51.453243 
z"/>
<path fill="#FF4D64" opacity="1.000000" stroke="none" 
	d="
M155.354340,51.609604 
	C192.246658,64.768623 213.977417,100.128723 209.910126,139.949280 
	C206.259064,175.694778 176.749130,205.746033 139.902588,211.241104 
	C93.403168,218.175735 51.441353,185.711060 45.544468,138.238892 
	C40.008888,93.675385 74.069878,51.759968 119.571434,47.274117 
	C131.647018,46.083622 143.506378,47.338776 155.354340,51.609604 
M136.160797,53.031868 
	C129.856644,53.213154 123.408127,52.597946 117.272697,53.710075 
	C86.522499,59.283955 64.333939,88.209045 66.899338,121.083618 
	C69.946266,160.128784 107.936752,187.214264 145.222366,176.440750 
	C173.854233,168.167694 191.665039,141.740799 189.996338,110.007050 
	C188.531479,82.149651 166.349579,58.320133 136.160797,53.031868 
z"/>
<path fill="#FFF8F9" opacity="1.000000" stroke="none" 
	d="
M136.614227,53.089413 
	C166.349579,58.320133 188.531479,82.149651 189.996338,110.007050 
	C191.665039,141.740799 173.854233,168.167694 145.222366,176.440750 
	C107.936752,187.214264 69.946266,160.128784 66.899338,121.083618 
	C64.333939,88.209045 86.522499,59.283955 117.272697,53.710075 
	C123.408127,52.597946 129.856644,53.213154 136.614227,53.089413 
M141.716187,56.596813 
	C137.609756,56.032955 133.516663,55.117359 129.394791,54.961220 
	C98.150749,53.777683 71.499924,78.627907 71.253105,108.988480 
	C70.987152,141.702576 99.487556,167.077209 132.324219,164.340607 
	C159.453308,162.079697 181.635376,141.496323 183.997406,115.933830 
	C186.579987,87.984322 169.650009,63.857197 141.716187,56.596813 
z"/>
<path fill="#FF4E64" opacity="1.000000" stroke="none" 
	d="
M142.114960,56.705841 
	C169.650009,63.857197 186.579987,87.984322 183.997406,115.933830 
	C181.635376,141.496323 159.453308,162.079697 132.324219,164.340607 
	C99.487556,167.077209 70.987152,141.702576 71.253105,108.988480 
	C71.499924,78.627907 98.150749,53.777683 129.394791,54.961220 
	C133.516663,55.117359 137.609756,56.032955 142.114960,56.705841 
M112.403900,62.788643 
	C95.816154,69.076599 85.506378,80.666206 84.207115,98.615036 
	C82.981621,115.544907 90.819221,128.373459 105.466721,136.413300 
	C120.929665,144.900711 136.627441,144.060593 151.323578,134.263733 
	C173.533554,119.457924 175.460373,88.292053 155.243149,71.097534 
	C142.927994,60.623638 128.714539,57.870491 112.403900,62.788643 
z"/>
<path fill="#FFF8F9" opacity="1.000000" stroke="none" 
	d="
M112.779167,62.655159 
	C128.714539,57.870491 142.927994,60.623638 155.243149,71.097534 
	C175.460373,88.292053 173.533554,119.457924 151.323578,134.263733 
	C136.627441,144.060593 120.929665,144.900711 105.466721,136.413300 
	C90.819221,128.373459 82.981621,115.544907 84.207115,98.615036 
	C85.506378,80.666206 95.816154,69.076599 112.779167,62.655159 
M113.654274,65.944099 
	C99.029106,73.632751 92.685966,86.064629 94.021233,102.155151 
	C95.188293,116.218605 102.444656,126.624397 115.727600,131.969421 
	C129.392776,137.468246 144.580353,132.713669 153.534332,120.717194 
	C163.260727,107.685852 163.131058,88.945396 153.224869,75.989265 
	C143.900665,63.794308 128.977829,59.820663 113.654274,65.944099 
z"/>
<path fill="#FF4D64" opacity="1.000000" stroke="none" 
	d="
M114.005951,65.791916 
	C128.977829,59.820663 143.900665,63.794308 153.224869,75.989265 
	C163.131058,88.945396 163.260727,107.685852 153.534332,120.717194 
	C144.580353,132.713669 129.392776,137.468246 115.727600,131.969421 
	C102.444656,126.624397 95.188293,116.218605 94.021233,102.155151 
	C92.685966,86.064629 99.029106,73.632751 114.005951,65.791916 
M143.213455,77.565216 
	C139.683594,70.262337 133.908371,66.410316 125.753273,66.689827 
	C118.434578,66.940659 113.123024,70.691650 110.126663,77.261337 
	C107.024063,84.063980 108.068970,90.589325 112.808289,96.369339 
	C118.183678,102.925095 127.416321,104.673752 134.929581,100.790886 
	C142.205063,97.030914 147.345352,87.203690 143.213455,77.565216 
z"/>
<path fill="#FFFCFD" opacity="1.000000" stroke="none" 
	d="
M143.387665,77.915833 
	C147.345352,87.203690 142.205063,97.030914 134.929581,100.790886 
	C127.416321,104.673752 118.183678,102.925095 112.808289,96.369339 
	C108.068970,90.589325 107.024063,84.063980 110.126663,77.261337 
	C113.123024,70.691650 118.434578,66.940659 125.753273,66.689827 
	C133.908371,66.410316 139.683594,70.262337 143.387665,77.915833 
z"/>
</svg>