<svg version="1.1" id="Layer_1" xmlns="http://www.w3.org/2000/svg" xmlns:xlink="http://www.w3.org/1999/xlink" x="0px" y="0px"
	 width="100%" viewBox="0 0 225 225" enable-background="new 0 0 225 225" xml:space="preserve">
<path fill="#FFFEFE" opacity="1.000000" stroke="none" 
	d="
M158.000000,226.000000 
	C105.333336,226.000000 53.166672,226.000000 1.000007,226.000000 
	C1.000005,151.000000 1.000005,76.000015 1.000002,1.000017 
	C75.999992,1.000011 150.999985,1.000011 225.999969,1.000006 
	C225.999985,75.999985 225.999985,150.999969 226.000000,225.999969 
	C203.500000,226.000000 181.000000,226.000000 158.000000,226.000000 
M181.276779,125.105507 
	C181.178085,117.402260 181.079391,109.699005 181.005737,101.500832 
	C181.005737,101.500832 180.824844,101.039459 180.729721,100.354034 
	C178.519531,97.240723 175.823990,96.087906 171.777115,96.671646 
	C157.610779,98.715065 143.385452,100.350487 129.180832,102.127182 
	C122.670776,102.941452 121.888054,103.780075 121.865814,110.224792 
	C121.855469,113.222099 121.466492,116.307480 122.063332,119.184006 
	C122.421951,120.912437 124.153831,123.439453 125.602432,123.691933 
	C141.471649,126.457840 157.399307,128.894928 173.329681,131.298233 
	C176.787918,131.819931 179.525284,130.494568 181.001587,126.502281 
	C181.001587,126.502281 180.980637,126.004578 181.276779,125.105507 
M36.705376,42.903320 
	C36.789928,51.598995 36.874485,60.294666 36.913891,69.500565 
	C36.977066,69.659195 37.040237,69.817818 37.159855,70.676758 
	C39.113163,72.099663 40.884190,73.993164 43.061909,74.836693 
	C46.444969,76.147095 50.104618,76.743729 53.647411,77.641380 
	C67.985512,81.274261 82.321297,84.916321 96.663841,88.531563 
	C99.856758,89.336372 103.636307,90.116364 104.138046,85.591789 
	C104.738182,80.179810 104.414742,74.639534 104.116150,69.175331 
	C104.055466,68.064926 102.524017,66.673996 101.335732,66.040222 
	C83.428223,56.489254 65.496429,46.982292 47.491589,37.616375 
	C43.072948,35.317848 40.108761,36.515568 36.954533,41.495544 
	C36.966961,41.664352 36.979389,41.833164 36.705376,42.903320 
M37.104916,185.622726 
	C37.371197,185.912125 37.637478,186.201538 38.085732,187.141159 
	C41.100124,190.681686 44.462460,190.552811 48.337215,188.482437 
	C63.013935,180.640228 77.772446,172.951309 92.475792,165.158691 
	C104.999710,158.521164 104.985268,158.492966 104.593033,144.386841 
	C104.574509,143.720932 104.564720,143.052505 104.497849,142.390594 
	C104.048729,137.945160 102.209953,136.547287 97.875069,137.634476 
	C79.654366,142.204193 61.422630,146.736191 43.272324,151.572433 
	C41.012794,152.174484 39.215206,154.510193 36.987644,156.494934 
	C36.998955,156.661652 37.010262,156.828354 36.725498,157.894714 
	C36.843075,166.936493 36.960651,175.978271 37.104916,185.622726 
M189.863800,157.333496 
	C187.632675,155.342392 185.703598,152.240387 183.121964,151.538498 
	C164.876343,146.577896 146.500320,142.095871 128.157135,137.496063 
	C124.185280,136.500061 122.035103,138.194595 121.935684,142.243927 
	C121.829590,146.565414 121.560860,150.932175 122.062370,155.196960 
	C122.287842,157.114334 123.783295,159.623627 125.432655,160.518326 
	C143.093033,170.098419 160.867096,179.471344 178.684631,188.757874 
	C184.585846,191.833603 189.889313,188.595428 190.000092,181.905319 
	C190.126633,174.262283 189.924255,166.613815 189.949097,158.502274 
	C189.949097,158.502274 189.816330,158.048279 189.863800,157.333496 
M190.041931,66.991364 
	C190.043015,60.172733 190.055054,53.354084 190.042496,46.535477 
	C190.025452,37.278641 185.033722,34.277374 176.832260,38.599762 
	C162.730469,46.031773 148.632950,53.471958 134.540527,60.921707 
	C121.496719,67.817123 121.500687,67.824631 121.862724,82.770012 
	C121.999840,88.430328 123.910446,89.998764 129.325470,88.633705 
	C147.178009,84.133286 165.004303,79.528290 182.865387,75.062309 
	C186.814178,74.074959 189.476929,72.104935 190.041931,66.991364 
M57.608109,96.989861 
	C56.944195,96.939461 56.277897,96.910156 55.616730,96.835464 
	C47.553440,95.924469 44.991631,98.181107 44.977932,106.238640 
	C44.968021,112.067818 44.887970,117.898727 45.001663,123.725700 
	C45.101402,128.837784 47.770367,131.372025 52.783295,131.317230 
	C54.441685,131.299103 56.116459,131.178589 57.751797,130.910217 
	C69.223137,129.027649 80.674019,127.017967 92.154900,125.196747 
	C105.634438,123.058487 104.587280,124.900703 104.593376,110.474876 
	C104.596237,103.715004 103.866547,102.827095 96.984505,102.154037 
	C90.791557,101.548370 84.533646,101.505852 78.373749,100.690697 
	C71.699707,99.807510 65.105934,98.317841 57.608109,96.989861 
z"/>
<path fill="#EB6149" opacity="1.000000" stroke="none" 
	d="
M189.864822,158.967697 
	C189.924255,166.613815 190.126633,174.262283 190.000092,181.905319 
	C189.889313,188.595428 184.585846,191.833603 178.684631,188.757874 
	C160.867096,179.471344 143.093033,170.098419 125.432655,160.518326 
	C123.783295,159.623627 122.287842,157.114334 122.062370,155.196960 
	C121.560860,150.932175 121.829590,146.565414 121.935684,142.243927 
	C122.035103,138.194595 124.185280,136.500061 128.157135,137.496063 
	C146.500320,142.095871 164.876343,146.577896 183.121964,151.538498 
	C185.703598,152.240387 187.632675,155.342392 189.699554,157.781555 
	C189.354431,158.573212 189.464264,158.819229 189.864822,158.967697 
z"/>
<path fill="#EB6149" opacity="1.000000" stroke="none" 
	d="
M190.030884,67.432312 
	C189.476929,72.104935 186.814178,74.074959 182.865387,75.062309 
	C165.004303,79.528290 147.178009,84.133286 129.325470,88.633705 
	C123.910446,89.998764 121.999840,88.430328 121.862724,82.770012 
	C121.500687,67.824631 121.496719,67.817123 134.540527,60.921707 
	C148.632950,53.471958 162.730469,46.031773 176.832260,38.599762 
	C185.033722,34.277374 190.025452,37.278641 190.042496,46.535477 
	C190.055054,53.354084 190.043015,60.172733 190.030884,67.432312 
z"/>
<path fill="#EB6149" opacity="1.000000" stroke="none" 
	d="
M37.203568,156.042572 
	C39.215206,154.510193 41.012794,152.174484 43.272324,151.572433 
	C61.422630,146.736191 79.654366,142.204193 97.875069,137.634476 
	C102.209953,136.547287 104.048729,137.945160 104.497849,142.390594 
	C104.564720,143.052505 104.574509,143.720932 104.593033,144.386841 
	C104.985268,158.492966 104.999710,158.521164 92.475792,165.158691 
	C77.772446,172.951309 63.013935,180.640228 48.337215,188.482437 
	C44.462460,190.552811 41.100124,190.681686 37.948215,186.522888 
	C37.566540,185.609756 37.322384,185.314911 37.078228,185.020050 
	C36.960651,175.978271 36.843075,166.936493 37.034328,157.374512 
	C37.419350,156.767242 37.577450,156.642593 37.557697,156.599548 
	C37.466797,156.401428 37.326286,156.226089 37.203568,156.042572 
z"/>
<path fill="#EB6149" opacity="1.000000" stroke="none" 
	d="
M36.959038,68.990341 
	C36.874485,60.294666 36.789928,51.598995 37.013756,42.380825 
	C37.400658,41.769402 37.563404,41.639351 37.543461,41.598503 
	C37.445480,41.397831 37.298958,41.220860 37.169582,41.035519 
	C40.108761,36.515568 43.072948,35.317848 47.491589,37.616375 
	C65.496429,46.982292 83.428223,56.489254 101.335732,66.040222 
	C102.524017,66.673996 104.055466,68.064926 104.116150,69.175331 
	C104.414742,74.639534 104.738182,80.179810 104.138046,85.591789 
	C103.636307,90.116364 99.856758,89.336372 96.663841,88.531563 
	C82.321297,84.916321 67.985512,81.274261 53.647411,77.641380 
	C50.104618,76.743729 46.444969,76.147095 43.061909,74.836693 
	C40.884190,73.993164 39.113163,72.099663 37.285469,70.223106 
	C37.260406,69.509750 37.109722,69.250046 36.959038,68.990341 
z"/>
<path fill="#EB6149" opacity="1.000000" stroke="none" 
	d="
M58.042629,97.041260 
	C65.105934,98.317841 71.699707,99.807510 78.373749,100.690697 
	C84.533646,101.505852 90.791557,101.548370 96.984505,102.154037 
	C103.866547,102.827095 104.596237,103.715004 104.593376,110.474876 
	C104.587280,124.900703 105.634438,123.058487 92.154900,125.196747 
	C80.674019,127.017967 69.223137,129.027649 57.751797,130.910217 
	C56.116459,131.178589 54.441685,131.299103 52.783295,131.317230 
	C47.770367,131.372025 45.101402,128.837784 45.001663,123.725700 
	C44.887970,117.898727 44.968021,112.067818 44.977932,106.238640 
	C44.991631,98.181107 47.553440,95.924469 55.616730,96.835464 
	C56.277897,96.910156 56.944195,96.939461 58.042629,97.041260 
z"/>
<path fill="#EB6149" opacity="1.000000" stroke="none" 
	d="
M180.980682,101.995758 
	C181.079391,109.699005 181.178085,117.402260 180.967392,125.625999 
	C180.581833,126.234200 180.423538,126.360443 180.443512,126.403046 
	C180.536453,126.601151 180.678772,126.776085 180.803406,126.959305 
	C179.525284,130.494568 176.787918,131.819931 173.329681,131.298233 
	C157.399307,128.894928 141.471649,126.457840 125.602432,123.691933 
	C124.153831,123.439453 122.421951,120.912437 122.063332,119.184006 
	C121.466492,116.307480 121.855469,113.222099 121.865814,110.224792 
	C121.888054,103.780075 122.670776,102.941452 129.180832,102.127182 
	C143.385452,100.350487 157.610779,98.715065 171.777115,96.671646 
	C175.823990,96.087906 178.519531,97.240723 180.636017,100.801697 
	C180.688431,101.498161 180.834564,101.746964 180.980682,101.995758 
z"/>
<path fill="#EA583D" opacity="1.000000" stroke="none" 
	d="
M37.062057,41.265533 
	C37.298958,41.220860 37.445480,41.397831 37.543461,41.598503 
	C37.563404,41.639351 37.400658,41.769402 37.156975,41.930153 
	C36.979389,41.833164 36.966961,41.664352 37.062057,41.265533 
z"/>
<path fill="#EA583D" opacity="1.000000" stroke="none" 
	d="
M36.936466,69.245453 
	C37.109722,69.250046 37.260406,69.509750 37.257248,69.872940 
	C37.040237,69.817818 36.977066,69.659195 36.936466,69.245453 
z"/>
<path fill="#EA583D" opacity="1.000000" stroke="none" 
	d="
M180.993225,101.748291 
	C180.834564,101.746964 180.688431,101.498161 180.683563,101.144409 
	C180.824844,101.039459 181.005737,101.500832 180.993225,101.748291 
z"/>
<path fill="#EA583D" opacity="1.000000" stroke="none" 
	d="
M180.902496,126.730789 
	C180.678772,126.776085 180.536453,126.601151 180.443512,126.403046 
	C180.423538,126.360443 180.581833,126.234200 180.819321,126.075531 
	C180.980637,126.004578 181.001587,126.502281 180.902496,126.730789 
z"/>
<path fill="#EA583E" opacity="1.000000" stroke="none" 
	d="
M37.095604,156.268753 
	C37.326286,156.226089 37.466797,156.401428 37.557697,156.599548 
	C37.577450,156.642593 37.419350,156.767242 37.182365,156.924683 
	C37.010262,156.828354 36.998955,156.661652 37.095604,156.268753 
z"/>
<path fill="#E95233" opacity="1.000000" stroke="none" 
	d="
M189.906952,158.734985 
	C189.464264,158.819229 189.354431,158.573212 189.675812,158.138947 
	C189.816330,158.048279 189.949097,158.502274 189.906952,158.734985 
z"/>
<path fill="#EA583E" opacity="1.000000" stroke="none" 
	d="
M37.091572,185.321381 
	C37.322384,185.314911 37.566540,185.609756 37.857231,186.197769 
	C37.637478,186.201538 37.371197,185.912125 37.091572,185.321381 
z"/>
</svg>