<svg version="1.1" id="Layer_1" xmlns="http://www.w3.org/2000/svg" xmlns:xlink="http://www.w3.org/1999/xlink" x="0px" y="0px"
	 width="100%" viewBox="0 0 900 900" enable-background="new 0 0 900 900" xml:space="preserve">
<path fill="#FFFFFF" opacity="1.000000" stroke="none" 
	d="
M623.000000,901.000000 
	C415.333344,901.000000 208.166672,901.000000 1.000000,901.000000 
	C1.000000,601.000000 1.000000,301.000000 1.000000,1.000000 
	C301.000000,1.000000 601.000000,1.000000 901.000000,1.000000 
	C901.000000,301.000000 901.000000,601.000000 901.000000,901.000000 
	C808.500000,901.000000 716.000000,901.000000 623.000000,901.000000 
M417.174103,792.209656 
	C432.929718,792.614319 448.688293,793.440125 464.440247,793.328125 
	C490.017944,793.146118 514.574829,787.521912 537.833984,776.959717 
	C563.508850,765.300537 585.576599,748.954224 601.778320,725.408264 
	C620.867065,697.666504 627.908264,666.191284 628.174683,633.359802 
	C628.798340,556.534424 628.336975,479.700500 628.467346,402.870270 
	C628.474915,398.413483 627.161621,397.248535 622.804016,397.278259 
	C595.639587,397.463531 568.473328,397.370270 541.307678,397.372375 
	C534.634521,397.372894 534.627258,397.378174 534.627380,404.263275 
	C534.628479,478.260498 534.667297,552.257751 534.606995,626.254944 
	C534.593994,642.225464 530.612305,657.334961 522.088318,670.801880 
	C499.686127,706.194885 455.187897,718.989136 416.682587,702.235352 
	C384.058167,688.040344 367.708557,661.571167 367.498810,626.195435 
	C367.058075,551.867493 367.327637,477.535095 367.460968,403.204803 
	C367.469116,398.663696 366.322021,397.230408 361.636841,397.267426 
	C334.472870,397.482056 307.306366,397.372040 280.140717,397.374268 
	C273.649170,397.374817 273.636597,397.379028 273.636322,403.928497 
	C273.633392,479.259003 273.558502,554.589600 273.693237,629.919861 
	C273.723297,646.728699 275.498810,663.371521 279.591766,679.788696 
	C288.497742,715.511475 308.534302,743.245544 338.896301,763.678040 
	C362.350433,779.461853 388.417755,788.263123 417.174103,792.209656 
M304.157745,295.670868 
	C308.463470,293.182159 312.770996,290.696655 317.074585,288.204315 
	C360.314880,263.162598 403.563110,238.134537 446.774933,213.043808 
	C449.638794,211.380920 452.048920,211.178833 455.041565,212.920959 
	C483.883881,229.711395 512.799255,246.376419 541.689819,263.084106 
	C569.161072,278.970947 596.624878,294.870697 624.108276,310.736542 
	C625.045349,311.277466 626.158386,311.513519 627.923218,312.160797 
	C628.038086,309.693909 628.201050,307.780853 628.205200,305.867462 
	C628.271606,275.042206 628.376221,244.216599 628.218994,213.392349 
	C628.209900,211.601807 626.453186,209.130722 624.809265,208.147247 
	C611.839783,200.388260 598.701294,192.911850 585.612244,185.352829 
	C542.192261,160.277405 498.754303,135.232895 455.385345,110.069420 
	C452.208862,108.226357 449.732727,108.333313 446.651581,110.156502 
	C436.507690,116.158882 426.198517,121.880981 415.993744,127.781502 
	C370.003235,154.373840 324.050446,181.031601 277.995178,207.511261 
	C274.731659,209.387619 273.719666,211.485214 273.732056,215.046356 
	C273.838104,245.541046 273.783539,276.036285 273.803833,306.531372 
	C273.804962,308.248016 274.042084,309.964569 274.250854,312.780579 
	C284.611633,306.802368 294.040283,301.362000 304.157745,295.670868 
z"/>
<path fill="#020202" opacity="1.000000" stroke="none" 
	d="
M416.744354,792.093384 
	C388.417755,788.263123 362.350433,779.461853 338.896301,763.678040 
	C308.534302,743.245544 288.497742,715.511475 279.591766,679.788696 
	C275.498810,663.371521 273.723297,646.728699 273.693237,629.919861 
	C273.558502,554.589600 273.633392,479.259003 273.636322,403.928497 
	C273.636597,397.379028 273.649170,397.374817 280.140717,397.374268 
	C307.306366,397.372040 334.472870,397.482056 361.636841,397.267426 
	C366.322021,397.230408 367.469116,398.663696 367.460968,403.204803 
	C367.327637,477.535095 367.058075,551.867493 367.498810,626.195435 
	C367.708557,661.571167 384.058167,688.040344 416.682587,702.235352 
	C455.187897,718.989136 499.686127,706.194885 522.088318,670.801880 
	C530.612305,657.334961 534.593994,642.225464 534.606995,626.254944 
	C534.667297,552.257751 534.628479,478.260498 534.627380,404.263275 
	C534.627258,397.378174 534.634521,397.372894 541.307678,397.372375 
	C568.473328,397.370270 595.639587,397.463531 622.804016,397.278259 
	C627.161621,397.248535 628.474915,398.413483 628.467346,402.870270 
	C628.336975,479.700500 628.798340,556.534424 628.174683,633.359802 
	C627.908264,666.191284 620.867065,697.666504 601.778320,725.408264 
	C585.576599,748.954224 563.508850,765.300537 537.833984,776.959717 
	C514.574829,787.521912 490.017944,793.146118 464.440247,793.328125 
	C448.688293,793.440125 432.929718,792.614319 416.744354,792.093384 
z"/>
<path fill="#A438F0" opacity="1.000000" stroke="none" 
	d="
M303.813354,295.796265 
	C294.040283,301.362000 284.611633,306.802368 274.250854,312.780579 
	C274.042084,309.964569 273.804962,308.248016 273.803833,306.531372 
	C273.783539,276.036285 273.838104,245.541046 273.732056,215.046356 
	C273.719666,211.485214 274.731659,209.387619 277.995178,207.511261 
	C324.050446,181.031601 370.003235,154.373840 415.993744,127.781502 
	C426.198517,121.880981 436.507690,116.158882 446.651581,110.156502 
	C449.732727,108.333313 452.208862,108.226357 455.385345,110.069420 
	C498.754303,135.232895 542.192261,160.277405 585.612244,185.352829 
	C598.701294,192.911850 611.839783,200.388260 624.809265,208.147247 
	C626.453186,209.130722 628.209900,211.601807 628.218994,213.392349 
	C628.376221,244.216599 628.271606,275.042206 628.205200,305.867462 
	C628.201050,307.780853 628.038086,309.693909 627.923218,312.160797 
	C626.158386,311.513519 625.045349,311.277466 624.108276,310.736542 
	C596.624878,294.870697 569.161072,278.970947 541.689819,263.084106 
	C512.799255,246.376419 483.883881,229.711395 455.041565,212.920959 
	C452.048920,211.178833 449.638794,211.380920 446.774933,213.043808 
	C403.563110,238.134537 360.314880,263.162598 317.074585,288.204315 
	C312.770996,290.696655 308.463470,293.182159 303.813354,295.796265 
z"/>
</svg>